<?xml version="1.0" encoding="utf-8"?>
<!-- Generator: Adobe Illustrator 19.0.0, SVG Export Plug-In . SVG Version: 6.00 Build 0)  -->
<svg version="1.1" id="Layer_1" xmlns="http://www.w3.org/2000/svg" xmlns:xlink="http://www.w3.org/1999/xlink" x="0px" y="0px"
	 viewBox="-395 273.3 50 50" style="enable-background:new -395 273.3 50 50;" xml:space="preserve">
<style type="text/css">
	.st0{fill:#CB5858;}
	.st1{fill:#FFFFFF;stroke:#000000;stroke-width:0.25;stroke-miterlimit:10;}
	.st2{fill:#1D1D1D;}
</style>
<path id="fire" class="st0" d="M-380.6,308.8c2.2,2.1,2.2,5.7,0,7.8c-2.2,2.1-8.9,4.9-11.1,2.8s0.7-8.5,2.9-10.6
	C-386.5,306.7-382.9,306.7-380.6,308.8z"/>
<g id="Lines">
	<path class="st0" d="M-380.9,309c-0.1,0.2-0.1,0.3-0.3,0.5c-1.4,1.3-2.8,2.7-4.2,4c-1,1-2,1.9-3,2.9c-0.8,0.7-1.5,1.4-2.3,2.1
		c-0.2,0.2-0.5,0.2-0.7,0c-0.2-0.2-0.2-0.5,0.1-0.7c2.1-2,4.2-4,6.3-6.1c1.1-1,2.1-2,3.2-3c0.1-0.1,0.4-0.1,0.5-0.1
		C-381.1,308.7-381,308.9-380.9,309z"/>
	<path class="st0" d="M-379.3,310.9c0.2,0.1,0.4,0.2,0.5,0.3c0.2,0.2,0.1,0.5-0.1,0.6c-0.6,0.5-1.1,1.1-1.7,1.6
		c-1.7,1.6-3.4,3.3-5.1,4.9c-0.3,0.3-0.5,0.3-0.7,0.1c-0.2-0.2-0.2-0.5,0.1-0.8c1.1-1,2.2-2.1,3.3-3.1c1.2-1.1,2.3-2.2,3.5-3.3
		C-379.7,311.1-379.5,311-379.3,310.9z"/>
	<path class="st0" d="M-383.6,306.3c0.1,0.1,0.3,0.1,0.4,0.3c0.2,0.2,0.1,0.4-0.1,0.6c-0.3,0.3-0.6,0.6-1,1c-1.8,1.7-3.5,3.4-5.3,5
		c-0.2,0.2-0.5,0.4-0.7,0.6c-0.3,0.2-0.5,0.2-0.7,0c-0.2-0.2-0.2-0.5,0.1-0.7c0.6-0.6,1.2-1.1,1.8-1.7c1.1-1,2.1-2,3.2-3
		c0.6-0.6,1.3-1.2,1.9-1.8C-383.9,306.5-383.8,306.4-383.6,306.3z"/>
</g>
<g id="rocket">
	<path id="Path_1_" class="st1" d="M-367.7,296c6.7,6.7,8,16.2,1.7,22.5l-3,3c-6.3,6.3-2-8.9-8.6-15.5s-21.9-2.3-15.5-8.6l3-3
		C-383.8,288-374.4,289.3-367.7,296L-367.7,296z"/>
	<path id="Path_2_" class="st1" d="M-346,274.3c1,0.9,1.3,4.3,0,8.8c-1.4,5.1-4.7,11.6-11.3,18c-8.1,7.9-13.2,10.7-13.2,10.7
		c-5.4,3.6-8,1.1-11.4-2.2c-3.4-3.4-6-5.9-2.3-11.3c0,0,2.9-5.1,10.9-13c6.2-6.1,12.5-9.4,17.5-10.9
		C-350.8,273-347.1,273.3-346,274.3L-346,274.3z"/>
	<path id="Path_3_" class="st2" d="M-359,286.7c1.9,1.9,1.9,5.1,0,7c-1.9,1.9-5.1,1.9-7,0c-1.9-1.9-1.9-5.1,0-7
		C-364.1,284.8-360.9,284.8-359,286.7z"/>
	<path id="Path_4_" class="st2" d="M-371.1,298.5c1,0.9-0.9,4.3-5.7,8.8c-4.8,4.6-7.7,5.8-8.6,4.8c-1-0.9,0.3-3.7,5-8.3
		C-375.6,299.4-372.1,297.6-371.1,298.5z"/>
</g>
</svg>
